<svg xmlns="http://www.w3.org/2000/svg" viewBox="0 0 1000 410"><rect width="1000" height="410" rx="24" fill="#0b1220"/><g font-family="ui-monospace,monospace" font-size="17"><text x="48" y="54" fill="#f8fafc" font-size="22" font-weight="700">EVIDENCE MATRIX</text><text x="430" y="54" fill="#94a3b8">STATUS</text><text x="620" y="54" fill="#94a3b8">FRESHNESS</text><text x="815" y="54" fill="#94a3b8">WINDOW</text><g fill="#cbd5e1"><text x="48" y="105">Static</text><text x="48" y="148">Runtime</text><text x="48" y="191">Schedules</text><text x="48" y="234">Database</text><text x="48" y="277">Events</text><text x="48" y="320">Contracts</text><text x="48" y="363">Infrastructure</text></g><g fill="#d1fae5"><text x="430" y="105">CLEAR</text><text x="430" y="148">CLEAR</text><text x="430" y="191">CLEAR</text><text x="430" y="277">CLEAR</text><text x="430" y="363">CLEAR</text></g><g fill="#fecaca"><text x="430" y="234">BLOCKED</text><text x="430" y="320">BLOCKED</text></g><g fill="#94a3b8"><text x="620" y="105">current</text><text x="620" y="148">4 min</text><text x="620" y="191">current</text><text x="620" y="234">3 min</text><text x="620" y="277">10 min</text><text x="620" y="320">current</text><text x="620" y="363">current</text><text x="815" y="105">revision</text><text x="815" y="148">45 days</text><text x="815" y="191">4 cycles</text><text x="815" y="234">30 days</text><text x="815" y="277">30 days</text><text x="815" y="320">revision</text><text x="815" y="363">revision</text></g></g></svg>